<svg t="1568705992128" viewBox="0 0 1024 1024" version="1.1" xmlns="http://www.w3.org/2000/svg" p-id="17031" width="200" height="200" class="icon">
    <path d="M724.928 976.384H339.712a143.04 143.04 0 0 1-141.888-131.008L165.76 444.544a141.44 141.44 0 0 1 33.536-103.616 141.696 141.696 0 0 1 108.288-50.048h39.296c129.856 0 164.16-107.392 164.16-164.224C511.04 63.552 560.832 16 626.944 16c44.992 0 87.296 22.4 113.152 59.904 29.76 43.072 48.576 120.896 20.992 214.976h88.256a142.528 142.528 0 0 1 140.544 164.992l-54.656 341.056a211.968 211.968 0 0 1-210.304 179.456z m-417.28-589.504c-16 1.152-27.264 6.848-35.264 16.32a46.208 46.208 0 0 0-10.944 33.728l32.064 400.832c1.92 23.872 22.208 42.624 46.208 42.624h385.216a116.48 116.48 0 0 0 115.584-98.56l54.656-341.312a46.4 46.4 0 0 0-45.76-53.632h-159.168a48.128 48.128 0 0 1-42.752-69.952c48.064-93.44 29.952-162.88 13.632-186.56a41.92 41.92 0 0 0-34.112-18.368c-13.184 0-19.904 4.928-19.904 14.656C607.104 256 517.76 386.88 346.944 386.88h-39.296zM111.104 976.384a48.064 48.064 0 0 1-47.808-44.16l-47.168-589.44a48 48 0 0 1 44.032-51.712 48.512 48.512 0 0 1 51.648 44.032l47.168 589.44a48.064 48.064 0 0 1-44.032 51.712l-3.84 0.128z" fill="" p-id="17032"></path>
</svg>
